# xmcd
#
# Track frame offsets: 
#        150
#        17021
#        36995
#        57372
#        77688
#        81211
#        98732
#        118563
#        121765
#        139187
#        158758
#        165527
#        184559
#        211065
#
# Disc length: 3103 seconds
#
# Revision: 1
# Processed by: cddbd v1.5.2PL0 Copyright (c) Steve Scherf et al.
# Submitted via: ExactAudioCopy v1.0b1
#
DISCID=a90c1d0e
DTITLE=Ozi Batla - Wild Colonial
DYEAR=2010
DGENRE=Hip-Hop
TTITLE0=Air Raid
TTITLE1=Wild Colonial
TTITLE2=Joyride
TTITLE3=Integrity
TTITLE4=Interlude: Have A Beer
TTITLE5=Mics, Peeps And Light
TTITLE6=She's Gotta Have It
TTITLE7=Interlude: What A Place
TTITLE8=Put it on wax
TTITLE9=1000 Drummers
TTITLE10=Don't Wanna Wait
TTITLE11=Shoot The Breeze
TTITLE12=Doesn't Matter
TTITLE13=A Distant Shore
EXTD=
EXTT0=
EXTT1=
EXTT2=
EXTT3=
EXTT4=
EXTT5=
EXTT6=
EXTT7=
EXTT8=
EXTT9=
EXTT10=
EXTT11=
EXTT12=
EXTT13=
PLAYORDER=
